custom-analysis
version=1
nRows=15
nColumns=42
inDegrees=no

This file contains tibia displacement and acting force.

Units are S.I. units (seconds, meters, Newtons, ...)
Angles are in degrees.

endheader
time	APT	SIT	knee_angle	aACL_R_force	pACL_R_force	aPCL_R_force	pPCL_R_force	aMCL_R_force	mMCL_R_force	pMCL_R_force	aLCL_R_force	mLCL_R_force	pLCL_R_force	aACL_R_length	pACL_R_length	aPCL_R_length	pPCL_R_length	aMCL_R_length	mMCL_R_length	pMCL_R_length	aLCL_R_length	mLCL_R_length	pLCL_R_length	aACL_R_strain	pACL_R_strain	aPCL_R_strain	pPCL_R_strain	aMCL_R_strain	mMCL_R_strain	pMCL_R_strain	aLCL_R_strain	mLCL_R_strain	pLCL_R_strain	femur_lat_meniscii_force_r	femur_lat_meniscii_torque_r	femur_med_meniscii_force_r	femur_med_meniscii_torque_r	femur_lat_tibia_force_r	femur_lat_tibia_torque_r	femur_med_tibia_force_r	femur_med_tibia_torque_r
      0.00000000	      0.00000000	      0.00000000	     30.00011112	     22.88079014	      7.60641182	    174.08315868	    146.18621272	      0.00000000	      0.00000000	      0.00000000	      0.00000000	      0.00000000	      0.00000000	      0.03271805	      0.02607625	      0.03270142	      0.03136611	      0.05762997	      0.05959056	      0.05857054	      0.05514707	      0.05179641	      0.04809519	      0.05523379	      0.02829620	      0.05165148	      0.04248583	     -0.00684221	     -0.00339395	     -0.03552665	     -0.01482986	     -0.08029662	     -0.08114818	     98.11124267	     28.31686177	      0.64021312	      0.03769051	      0.00000000	      0.00000000	     42.91414198	      1.13145938
      0.00100000	      0.00000667	      0.00004406	     30.00011112	     -1.87146730	    -18.58900849	    143.95745126	     79.54233176	      0.00000000	      0.00000000	      0.00000000	      0.00000000	      0.00000000	      0.00000000	      0.03268349	      0.02604077	      0.03266269	      0.03132729	      0.05758759	      0.05954807	      0.05852861	      0.05510337	      0.05175280	      0.04805168	      0.05411926	      0.02689670	      0.05040597	      0.04119570	     -0.00757255	     -0.00410470	     -0.03621711	     -0.01561047	     -0.08107086	     -0.08197933	    247.74231983	     73.93574432	      2.03639659	      0.11615317	      0.00000000	      0.00000000	    170.19148841	      4.35322407
      0.00239703	      0.00002715	      0.00015082	     30.00011112	    -10.25280798	    -29.29151656	    134.20592380	     82.07324479	      0.00000000	      0.00000000	      0.00000000	      0.00000000	      0.00000000	      0.00000000	      0.03258104	      0.02593115	      0.03257575	      0.03124069	      0.05749061	      0.05945069	      0.05843394	      0.05500413	      0.05165440	      0.04795415	      0.05081488	      0.02257415	      0.04761002	      0.03831759	     -0.00924386	     -0.00573322	     -0.03777594	     -0.01738341	     -0.08281816	     -0.08384270	    242.43424455	     72.31968924	      3.76050170	      0.20362851	      0.00000000	      0.00000000	    423.91704527	     10.52100712
      0.00427482	      0.00008295	      0.00023378	     30.00011112	     -7.31506033	    -28.39443775	    132.91312969	     98.65794217	      0.00000000	      0.00000000	      0.00000000	      0.00000000	      0.00000000	      0.00000000	      0.03245305	      0.02577868	      0.03251671	      0.03118431	      0.05743471	      0.05939359	      0.05838392	      0.05494368	      0.05159727	      0.04789947	      0.04668673	      0.01656171	      0.04571142	      0.03644359	     -0.01020711	     -0.00668811	     -0.03859959	     -0.01846319	     -0.08383247	     -0.08488735	    192.60499572	     59.72814416	      4.04306590	      0.22769410	      0.00000000	      0.00000000	    337.63665606	      8.16685559
      0.00615260	      0.00017907	      0.00028620	     30.00011112	     -4.30022622	    -25.21120300	    123.15623901	     88.83585769	      0.00000000	      0.00000000	      0.00000000	      0.00000000	      0.00000000	      0.00000000	      0.03235187	      0.02564448	      0.03246996	      0.03114172	      0.05741536	      0.05937212	      0.05837142	      0.05491282	      0.05157134	      0.04787609	      0.04342351	      0.01126962	      0.04420789	      0.03502803	     -0.01054057	     -0.00704726	     -0.03880541	     -0.01901459	     -0.08429298	     -0.08533395	    211.90743435	     67.91212882	      5.34777750	      0.36561813	      0.00000000	      0.00000000	    263.52499692	      6.32387668
      0.00766378	      0.00027320	      0.00032281	     30.00011112	     -1.50790453	    -21.42016525	    114.44705248	     80.29301554	      0.00000000	      0.00000000	      0.00000000	      0.00000000	      0.00000000	      0.00000000	      0.03228892	      0.02555419	      0.03242647	      0.03110193	      0.05740506	      0.05935973	      0.05836636	      0.05488884	      0.05155170	      0.04785818	      0.04139316	      0.00770901	      0.04280942	      0.03370569	     -0.01071803	     -0.00725447	     -0.03888887	     -0.01944284	     -0.08464175	     -0.08567605	    220.09781958	     71.49320691	      6.58732348	      0.49181168	      0.00000000	      0.00000000	    227.35695035	      5.46476204
      0.00917496	      0.00037114	      0.00035610	     30.00011112	      0.75376821	    -17.88812739	    106.14881054	     73.55314771	      0.00000000	      0.00000000	      0.00000000	      0.00000000	      0.00000000	      0.00000000	      0.03224002	      0.02547948	      0.03238024	      0.03105938	      0.05739644	      0.05934893	      0.05836243	      0.05486409	      0.05153118	      0.04783909	      0.03981610	      0.00476286	      0.04132249	      0.03229150	     -0.01086660	     -0.00743510	     -0.03895353	     -0.01988515	     -0.08500608	     -0.08604081	    220.22403096	     71.89266963	      7.64985606	      0.59552179	      0.00000000	      0.00000000	    208.57486854	      5.02450880
      0.01068614	      0.00046528	      0.00038562	     30.00011112	      2.09305984	    -15.25833768	     98.93954099	     69.08994952	      0.00000000	      0.00000000	      0.00000000	      0.00000000	      0.00000000	      0.00000000	      0.03220154	      0.02541752	      0.03233555	      0.03101823	      0.05738982	      0.05934021	      0.05835994	      0.05484001	      0.05151105	      0.04782016	      0.03857506	      0.00231934	      0.03988541	      0.03092378	     -0.01098077	     -0.00758094	     -0.03899452	     -0.02031524	     -0.08536348	     -0.08640252	    213.98873070	     69.62898759	      8.74289556	      0.71859560	      0.00000000	      0.00000000	    196.06212718	      4.75715592
      0.01219732	      0.00055117	      0.00041295	     30.00011112	      2.21950669	    -13.90301144	     92.69871593	     65.70591040	      0.00000000	      0.00000000	      0.00000000	      0.00000000	      0.00000000	      0.00000000	      0.03216823	      0.02536315	      0.03229417	      0.03098018	      0.05738407	      0.05933255	      0.05835786	      0.05481623	      0.05149083	      0.04780101	      0.03750063	      0.00017543	      0.03855464	      0.02965917	     -0.01107982	     -0.00770904	     -0.03902876	     -0.02074005	     -0.08572241	     -0.08676827	    205.62837568	     66.83453324	     10.08504944	      0.86886485	      0.00000000	      0.00000000	    187.78701618	      4.59873338
      0.01404152	      0.00064049	      0.00044544	     30.00011112	      0.19692392	      0.00000000	     86.64804451	     62.96377545	      0.00000000	      0.00000000	      0.00000000	      0.00000000	      0.00000000	      0.00000000	      0.03212739	      0.02529964	      0.03225021	      0.03094001	      0.05737712	      0.05932361	      0.05835494	      0.05478724	      0.05146563	      0.04777711	      0.03618345	     -0.00232898	      0.03714107	      0.02832395	     -0.01119955	     -0.00785853	     -0.03907690	     -0.02125801	     -0.08616993	     -0.08722506	    195.86955861	     62.34579407	     13.07998177	      1.23492775	      0.00000000	      0.00000000	    184.58517772	      4.54387964
      0.01588573	      0.00071301	      0.00047935	     30.00011112	     -0.97091384	      0.00000000	     82.38590122	     62.34435221	      0.00000000	      0.00000000	      0.00000000	      0.00000000	      0.00000000	      0.00000000	      0.03208071	      0.02523274	      0.03221320	      0.03090654	      0.05736903	      0.05931389	      0.05835060	      0.05475732	      0.05143898	      0.04775187	      0.03467805	     -0.00496703	      0.03595066	      0.02721169	     -0.01133909	     -0.00802115	     -0.03914831	     -0.02179253	     -0.08664322	     -0.08770726	    181.20445765	     56.34527457	     17.07523197	      1.80799937	      0.00000000	      0.00000000	    184.61636048	      4.54825913
      0.01786259	      0.00077724	      0.00051172	     30.00011112	     -1.20903451	      0.00000000	     79.14835105	     62.34076570	      0.00000000	      0.00000000	      0.00000000	      0.00000000	      0.00000000	      0.00000000	      0.03203153	      0.02516415	      0.03218246	      0.03087942	      0.05736402	      0.05930744	      0.05834930	      0.05472874	      0.05141345	      0.04772789	      0.03309183	     -0.00767194	      0.03496214	      0.02631036	     -0.01142533	     -0.00812895	     -0.03916974	     -0.02230295	     -0.08709638	     -0.08816532	    166.14071061	     50.75792765	     21.45694291	      2.55004142	      0.00000000	      0.00000000	    183.66229675	      4.51480512
      0.01983945	      0.00083327	      0.00054011	     30.00011112	     -0.87278251	      0.00000000	     76.25633771	     61.47161510	      0.00000000	      0.00000000	      0.00000000	      0.00000000	      0.00000000	      0.00000000	      0.03198562	      0.02510053	      0.03215762	      0.03085810	      0.05736252	      0.05930469	      0.05835121	      0.05470285	      0.05139030	      0.04770624	      0.03161128	     -0.01018075	      0.03416349	      0.02560161	     -0.01145118	     -0.00817490	     -0.03913834	     -0.02276549	     -0.08750754	     -0.08857891	    157.73292743	     47.85213086	     26.08291078	      3.44779173	      0.00000000	      0.00000000	    183.50988002	      4.50218723
      0.02237920	      0.00089743	      0.00056762	     30.00011112	      0.28913670	      0.00000000	     73.33194257	     60.24947820	      0.00000000	      0.00000000	      0.00000000	      0.00000000	      0.00000000	      0.00000000	      0.03193783	      0.02503250	      0.03213317	      0.03083796	      0.05736758	      0.05930836	      0.05836010	      0.05467527	      0.05136582	      0.04768349	      0.03006995	     -0.01286348	      0.03337692	      0.02493240	     -0.01136401	     -0.00811366	     -0.03899192	     -0.02325831	     -0.08794219	     -0.08901349	    151.45290114	     46.23937110	     31.36791633	      4.74778723	      0.00000000	      0.00000000	    176.58591472	      4.30741531
      0.02579228	      0.00097051	      0.00059534	     30.00011112	      1.77372812	      0.00000000	     69.72642395	     57.66718480	      0.00000000	      0.00000000	      0.00000000	      0.00000000	      0.00000000	      0.00000000	      0.03189119	      0.02496379	      0.03210563	      0.03081554	      0.05737731	      0.05931655	      0.05837390	      0.05464254	      0.05133648	      0.04765598	      0.02856571	     -0.01557282	      0.03249151	      0.02418716	     -0.01119632	     -0.00797660	     -0.03876459	     -0.02384291	     -0.08846306	     -0.08953919	    145.78318701	     44.25334320	     37.98074086	      6.74135401	      0.00000000	      0.00000000	    167.36123872	      4.05059055
